<svg width="22" height="20" viewBox="0 0 20 14" fill="none" xmlns="http://www.w3.org/2000/svg">
<path d="M17.545 10.025V7.604H19.967V5.789H17.545V3.368H15.73V5.789H13.309V7.604H15.73V10.025H17.545ZM6.052 3.302C7.185 3.302 7.948 3.786 8.382 4.198L10.104 2.528C9.056 1.548 7.689 0.947998 6.052 0.947998C2.714 0.946998 0 3.659 0 7C0 10.341 2.714 13.053 6.052 13.053C9.545 13.053 11.864 10.596 11.864 7.14C11.864 6.637 11.8 6.28 11.711 5.9H6.049V8.156H9.381C9.223 9.107 8.37 10.712 6.052 10.712C4.049 10.712 2.415 9.047 2.415 7.008C2.415 4.966 4.049 3.302 6.052 3.302Z" fill="black"/>
</svg>
