<svg width="20" height="22" viewBox="0 0 24 24" fill="none" xmlns="http://www.w3.org/2000/svg">
<path d="M4.98301 7.19698C6.19141 7.19698 7.17101 6.21738 7.17101 5.00898C7.17101 3.80058 6.19141 2.82098 4.98301 2.82098C3.77461 2.82098 2.79501 3.80058 2.79501 5.00898C2.79501 6.21738 3.77461 7.19698 4.98301 7.19698Z" fill="black"/>
<path d="M9.237 8.85499V20.994H13.006V14.991C13.006 13.407 13.304 11.873 15.268 11.873C17.205 11.873 17.229 13.684 17.229 15.091V20.995H21V14.338C21 11.068 20.296 8.55499 16.474 8.55499C14.639 8.55499 13.409 9.56199 12.906 10.515H12.855V8.85499H9.237V8.85499ZM3.095 8.85499H6.87V20.994H3.095V8.85499Z" fill="black"/>
</svg>
